HIERARCHY
ROOT Hips
{
	OFFSET 0.000000 0.000000 0.000000
	CHANNELS 6 Xposition Yposition Zposition Zrotation Xrotation Yrotation
	JOINT RightUpLeg
	{
		OFFSET -10.032200 0.000000 0.000000
		CHANNELS 3 Zrotation Xrotation Yrotation
		JOINT RightLeg
		{
			OFFSET 0.000000 -40.977000 0.000000
			CHANNELS 3 Zrotation Xrotation Yrotation
			JOINT RightFoot
			{
				OFFSET 0.000000 -38.933200 0.000000
				CHANNELS 3 Zrotation Xrotation Yrotation
				JOINT RightToe
				{
					OFFSET 0.000000 -1.977400 9.184000
					CHANNELS 3 Zrotation Xrotation Yrotation
					JOINT RightToeEnd
					{
						OFFSET 0.000000 2.335600 6.099100
						CHANNELS 3 Zrotation Xrotation Yrotation
						End Site
						{
						    OFFSET 0.000000 1.788000 4.669400
						}
					}
				}
			}
		}
	}
	JOINT LeftUpLeg
	{
		OFFSET 10.032200 0.000000 0.000000
		CHANNELS 3 Zrotation Xrotation Yrotation
		JOINT LeftLeg
		{
			OFFSET 0.000000 -40.977000 0.000000
			CHANNELS 3 Zrotation Xrotation Yrotation
			JOINT LeftFoot
			{
				OFFSET 0.000000 -38.933200 0.000000
				CHANNELS 3 Zrotation Xrotation Yrotation
				JOINT LeftToe
				{
					OFFSET 0.000000 -1.977400 9.184000
					CHANNELS 3 Zrotation Xrotation Yrotation
					JOINT LeftToeEnd
					{
						OFFSET 0.000000 2.335600 6.099100
						CHANNELS 3 Zrotation Xrotation Yrotation
						End Site
						{
						    OFFSET 0.000000 1.788000 4.669400
						}
					}
				}
			}
		}
	}
	JOINT Spine
	{
		OFFSET 0.000000 16.960900 0.000000
		CHANNELS 3 Zrotation Xrotation Yrotation
		JOINT Spine1
		{
			OFFSET 0.000000 13.413900 0.000000
			CHANNELS 3 Zrotation Xrotation Yrotation
			JOINT Spine2
			{
				OFFSET 0.000000 10.384400 0.000000
				CHANNELS 3 Zrotation Xrotation Yrotation
				JOINT LeftShoulder
				{
					OFFSET 2.000000 10.384400 0.000000
					CHANNELS 3 Zrotation Xrotation Yrotation
					JOINT LeftArm
					{
						OFFSET 15.649100 0.000000 0.000000
						CHANNELS 3 Zrotation Xrotation Yrotation
						JOINT LeftForeArm
						{
							OFFSET 0.000000 -26.641600 0.000000
							CHANNELS 3 Zrotation Xrotation Yrotation
							JOINT LeftHand
							{
								OFFSET 0.000000 -23.740600 0.000000
								CHANNELS 3 Zrotation Xrotation Yrotation
								JOINT LeftFinger0
								{
									OFFSET 0.000000 -7.620900 0.000000
									CHANNELS 3 Zrotation Xrotation Yrotation
									End Site
									{
									    OFFSET 0.000000 -5.000000 0.000000
									}
								}
							}
						}
					}
				}
				JOINT RightShoulder
				{
					OFFSET -2.000000 10.384400 0.000000
					CHANNELS 3 Zrotation Xrotation Yrotation
					JOINT RightArm
					{
						OFFSET -15.649100 0.000000 0.000000
						CHANNELS 3 Zrotation Xrotation Yrotation
						JOINT RightForeArm
						{
							OFFSET 0.000000 -26.641600 0.000000
							CHANNELS 3 Zrotation Xrotation Yrotation
							JOINT RightHand
							{
								OFFSET 0.000000 -23.740600 0.000000
								CHANNELS 3 Zrotation Xrotation Yrotation
								JOINT RightFinger0
								{
									OFFSET 0.000000 -7.620900 0.000000
									CHANNELS 3 Zrotation Xrotation Yrotation
									End Site
									{
									    OFFSET 0.000000 -5.000000 0.000000
									}
								}
							}
						}
					}
				}
				JOINT Neck
				{
					OFFSET 0.000000 10.384400 0.000000
					CHANNELS 3 Zrotation Xrotation Yrotation
					JOINT Head
					{
						OFFSET 0.000000 10.146900 0.000000
						CHANNELS 3 Zrotation Xrotation Yrotation
						JOINT HeadTip
						{
							OFFSET 0.000000 10.000000 0.000000
							CHANNELS 3 Zrotation Xrotation Yrotation
							End Site
							{
							    OFFSET 0.000000 5.000000 0.000000
							}
						}
					}
				}
			}
		}
	}
}
MOTION
Frames:	8
Frame Time:	0.033332
-118.186500 84.858300 -20.434400 1.544815 -5.589151 135.085319 -0.892447 -13.340964 -28.055017 -0.000000 26.740577 -0.000000 4.754762 7.113203 -7.588258 -0.000000 -2.306984 -0.000000 -0.000000 0.000000 0.000000 9.833041 -24.256085 42.961590 -0.000000 26.098730 -0.000000 7.586565 17.253184 1.849330 0.000000 -1.939136 0.000000 -0.000000 0.000000 0.000000 -5.476508 15.478117 2.897472 -0.000000 7.940335 -0.000000 -0.000000 0.000000 -0.000000 2.806226 -0.000000 -0.111771 54.144639 -58.494756 6.505403 -0.000000 -81.827787 -0.000000 14.436507 3.278064 -15.213262 -0.000000 0.000000 -0.000000 -4.919778 -0.000000 4.675134 -52.630299 -21.500831 -18.136889 -179.997303 -86.817728 -179.997147 -13.083125 12.139919 54.253788 0.000000 -0.000000 -0.000000 -0.000000 0.000000 -0.000000 2.784518 26.029165 -11.125301 0.000000 0.000000 0.000000 
-119.366700 84.571900 -19.233200 1.327284 -5.689801 134.577336 -0.746070 -14.350926 -28.361375 -0.000000 26.187641 -0.000000 3.610765 6.623140 -7.282529 -0.000000 -2.201097 -0.000000 -0.000000 -0.000000 -0.000000 10.413571 -25.636664 44.284852 0.000000 26.542694 -0.000000 7.958091 18.302862 1.296383 -0.000000 -1.668930 -0.000000 -0.000000 0.000000 0.000000 -4.917945 16.042447 3.302923 -0.000000 8.027151 0.000000 -0.000000 -0.000000 0.000000 2.863382 -0.000000 -0.466715 55.960006 -60.097471 11.304965 -0.000000 -82.095954 0.000000 15.782155 3.410505 -13.412632 0.000000 0.000000 0.000000 -5.934536 -0.000000 5.101783 -56.420146 -22.596221 -21.898812 -179.997280 -86.843935 -179.997124 -14.053681 11.172671 53.974451 0.000000 0.000000 0.000000 -0.000000 -0.000000 0.000000 1.377819 25.930505 -13.723751 -0.000000 0.000000 0.000000 
-120.644800 84.514000 -18.113800 1.107314 -5.707273 133.475863 -1.685659 -16.215922 -29.910763 0.000000 27.428261 -0.000000 3.664258 7.954246 -5.102755 -0.000000 -0.917446 0.000000 0.000000 0.000000 0.000000 11.017754 -26.552257 46.097331 0.000000 26.402295 -0.000000 7.893864 20.077964 0.432045 -0.000000 -1.067304 -0.000000 -0.000000 0.000000 0.000000 -4.552633 16.562247 3.851499 0.000000 8.161708 -0.000000 -0.000000 0.000000 -0.000000 2.908108 -0.000000 -0.496738 55.606032 -60.894334 13.632109 0.000000 -82.874281 -0.000000 16.985236 3.731303 -12.104418 0.000000 0.000000 -0.000000 -6.761121 0.000000 5.466899 -59.721294 -24.408028 -24.778859 -179.995493 -88.084025 -179.995338 -14.528581 10.271770 54.440765 -0.000000 0.000000 -0.000000 -0.000000 0.000000 -0.000000 -0.070984 26.136681 -14.789311 -0.000000 0.000000 -0.000000 
-121.756700 84.579200 -17.022700 0.979470 -5.710865 132.665582 -2.227184 -16.590097 -32.818129 -0.000000 26.483255 -0.000000 3.534205 9.333837 -1.355349 0.000000 -0.450262 -0.000000 0.000000 0.000000 0.000000 12.058597 -27.257811 48.747852 -0.000000 26.550855 0.000000 7.684035 22.353674 -1.776178 -0.000000 -0.742795 -0.000000 0.000000 -0.000000 -0.000000 -4.360647 16.800092 4.150672 -0.000000 8.279965 -0.000000 0.000000 0.000000 -0.000000 2.962856 0.000000 -0.583958 54.614532 -61.200405 13.516999 -0.000000 -83.601519 0.000000 18.450992 3.871065 -11.299765 -0.000000 -0.000000 -0.000000 -7.262210 -0.000000 5.847754 -62.247939 -26.011496 -26.661443 -179.976192 -89.634710 -179.976039 -14.690197 10.041998 55.528383 -0.000000 0.000000 0.000000 0.000000 0.000000 -0.000000 -0.578696 26.984267 -14.621481 -0.000000 -0.000000 -0.000000 
-122.690200 84.799500 -15.909400 1.004343 -5.657837 132.691263 -2.152656 -16.548947 -34.631971 0.000000 24.777064 -0.000000 3.382918 10.878654 -0.008793 0.000000 0.224940 0.000000 -0.000000 0.000000 -0.000000 13.784662 -28.083296 51.717387 0.000000 27.828486 -0.000000 6.145636 25.357429 -5.432123 0.000000 0.376233 -0.000000 -0.000000 0.000000 -0.000000 -4.187649 17.046269 4.142578 -0.000000 8.398762 0.000000 -0.000000 0.000000 0.000000 3.160427 0.000000 -0.601163 53.230953 -61.892238 11.236257 0.000000 -83.700475 -0.000000 18.592185 3.596831 -11.922506 -0.000000 -0.000000 -0.000000 -7.510411 -0.000000 5.814743 -63.905567 -27.165221 -27.872558 -0.007617 -88.856477 -0.007466 -14.688460 9.959461 55.950510 -0.000000 0.000000 -0.000000 -0.000000 0.000000 0.000000 0.027027 27.584358 -14.026189 -0.000000 -0.000000 -0.000000 
-123.584500 85.106400 -15.017400 0.671668 -5.281567 132.999660 -2.328964 -16.574776 -35.314284 -0.000000 22.995580 0.000000 3.069723 12.202553 -0.463787 0.000000 0.928847 -0.000000 -0.000000 0.000000 -0.000000 15.320790 -28.823616 53.519693 -0.000000 29.783483 -0.000000 1.575379 28.199342 -9.508417 0.000000 2.411349 -0.000000 -0.000000 0.000000 -0.000000 -4.520294 17.066355 4.083267 -0.000000 8.376476 -0.000000 -0.000000 -0.000000 -0.000000 3.138676 -0.000000 -0.751310 51.863078 -62.383392 7.390619 -0.000000 -83.658421 -0.000000 17.148973 3.632438 -13.061562 -0.000000 0.000000 -0.000000 -7.713987 -0.000000 5.673049 -64.566058 -27.495304 -28.317172 -0.004201 -87.927093 -0.004051 -14.266963 10.065808 55.565045 0.000000 0.000000 -0.000000 -0.000000 -0.000000 -0.000000 0.788664 27.579748 -13.052327 0.000000 0.000000 0.000000 
-124.369700 85.415500 -14.437000 0.487262 -4.633061 133.552993 -2.784756 -16.100405 -36.098320 0.000000 21.320812 -0.000000 3.025098 13.500735 -0.719694 0.000000 1.069880 0.000000 -0.000000 0.000000 0.000000 16.655442 -28.882574 53.179363 -0.000000 31.867422 0.000000 -5.593863 31.414860 -12.691436 -0.000000 2.180131 0.000000 -0.000000 0.000000 -0.000000 -4.776200 17.073907 3.775705 -0.000000 8.266598 -0.000000 -0.000000 -0.000000 -0.000000 2.598534 0.000000 -1.045020 50.384560 -62.469814 2.872112 -0.000000 -83.706158 0.000000 13.520695 3.356532 -16.337154 -0.000000 0.000000 0.000000 -7.766242 -0.000000 5.529058 -64.864993 -27.281202 -28.105998 -0.003401 -87.440175 -0.003252 -13.670439 10.699872 55.715567 0.000000 -0.000000 0.000000 -0.000000 -0.000000 -0.000000 1.065820 27.240140 -11.640612 0.000000 0.000000 -0.000000 
-125.079000 85.710800 -14.084800 0.224729 -3.968425 134.053468 -3.297297 -15.567499 -36.438652 0.000000 19.694190 -0.000000 3.328084 14.452079 -1.546106 0.000000 1.299587 0.000000 0.000000 0.000000 0.000000 17.885235 -28.619686 51.182443 0.000000 34.807505 -0.000000 -7.400542 29.174962 -9.796135 0.000000 1.120794 -0.000000 -0.000000 0.000000 0.000000 -5.236058 16.703307 3.426026 0.000000 8.085098 -0.000000 0.000000 0.000000 -0.000000 2.023611 0.000000 -1.282786 47.713166 -62.111850 -2.104807 0.000000 -84.186341 0.000000 8.256883 3.201141 -22.222874 -0.000000 0.000000 -0.000000 -7.300223 -0.000000 5.202759 -64.873296 -26.975642 -27.245057 -0.003008 -87.106063 -0.002859 -12.976492 11.498669 56.113475 -0.000000 0.000000 -0.000000 0.000000 0.000000 -0.000000 1.463164 26.864957 -10.599050 -0.000000 0.000000 0.000000 
